<mxfile host="app.diagrams.net" agent="Mozilla/5.0 (Windows NT 10.0; Win64; x64) AppleWebKit/537.36 (KHTML, like Gecko) Chrome/131.0.0.0 Safari/537.36 Edg/131.0.0.0" version="26.0.5">
  <diagram name="Page-1" id="am8pxdbbcNvz-yb-qvFi">
    <mxGraphModel dx="1429" dy="831" grid="1" gridSize="10" guides="1" tooltips="1" connect="1" arrows="1" fold="1" page="1" pageScale="1" pageWidth="1169" pageHeight="1654" math="0" shadow="0">
      <root>
        <mxCell id="0" />
        <mxCell id="1" parent="0" />
        <mxCell id="OW2uP8YpIRxtxsNKAFUY-7" value="SLB(DIR.SLB.COM)" style="rounded=1;whiteSpace=wrap;html=1;fillColor=#d5e8d4;strokeColor=#82b366;" vertex="1" parent="1">
          <mxGeometry x="465" y="20" width="240" height="20" as="geometry" />
        </mxCell>
        <mxCell id="OW2uP8YpIRxtxsNKAFUY-12" value="" style="edgeStyle=orthogonalEdgeStyle;rounded=0;orthogonalLoop=1;jettySize=auto;html=1;" edge="1" parent="1" source="OW2uP8YpIRxtxsNKAFUY-9" target="OW2uP8YpIRxtxsNKAFUY-7">
          <mxGeometry relative="1" as="geometry" />
        </mxCell>
        <mxCell id="OW2uP8YpIRxtxsNKAFUY-9" value="" style="image;points=[];aspect=fixed;html=1;align=center;shadow=0;dashed=0;image=img/lib/allied_telesis/computer_and_terminals/Server_Desktop.svg;" vertex="1" parent="1">
          <mxGeometry x="553" y="90" width="63.11" height="80" as="geometry" />
        </mxCell>
        <mxCell id="OW2uP8YpIRxtxsNKAFUY-10" value="SVR_FISICO" style="text;html=1;align=center;verticalAlign=middle;resizable=0;points=[];autosize=1;strokeColor=none;fillColor=none;" vertex="1" parent="1">
          <mxGeometry x="640" y="110" width="90" height="30" as="geometry" />
        </mxCell>
        <mxCell id="OW2uP8YpIRxtxsNKAFUY-16" value="" style="edgeStyle=orthogonalEdgeStyle;rounded=0;orthogonalLoop=1;jettySize=auto;html=1;" edge="1" parent="1" source="OW2uP8YpIRxtxsNKAFUY-13" target="OW2uP8YpIRxtxsNKAFUY-9">
          <mxGeometry relative="1" as="geometry" />
        </mxCell>
        <mxCell id="OW2uP8YpIRxtxsNKAFUY-13" value="" style="image;points=[];aspect=fixed;html=1;align=center;shadow=0;dashed=0;image=img/lib/allied_telesis/computer_and_terminals/Server_Desktop.svg;" vertex="1" parent="1">
          <mxGeometry x="662.4" y="180" width="42.599999999999994" height="54" as="geometry" />
        </mxCell>
        <mxCell id="OW2uP8YpIRxtxsNKAFUY-15" value="" style="edgeStyle=orthogonalEdgeStyle;rounded=0;orthogonalLoop=1;jettySize=auto;html=1;" edge="1" parent="1" source="OW2uP8YpIRxtxsNKAFUY-14" target="OW2uP8YpIRxtxsNKAFUY-9">
          <mxGeometry relative="1" as="geometry" />
        </mxCell>
        <mxCell id="OW2uP8YpIRxtxsNKAFUY-35" style="edgeStyle=orthogonalEdgeStyle;rounded=0;orthogonalLoop=1;jettySize=auto;html=1;entryX=0;entryY=0.5;entryDx=0;entryDy=0;fillColor=#f5f5f5;gradientColor=#b3b3b3;strokeColor=#666666;" edge="1" parent="1" source="OW2uP8YpIRxtxsNKAFUY-14" target="OW2uP8YpIRxtxsNKAFUY-33">
          <mxGeometry relative="1" as="geometry">
            <Array as="points">
              <mxPoint x="529" y="230" />
              <mxPoint x="529" y="290" />
            </Array>
          </mxGeometry>
        </mxCell>
        <mxCell id="OW2uP8YpIRxtxsNKAFUY-38" value="AZCOPY" style="edgeLabel;html=1;align=center;verticalAlign=middle;resizable=0;points=[];" vertex="1" connectable="0" parent="OW2uP8YpIRxtxsNKAFUY-35">
          <mxGeometry x="0.0418" y="2" relative="1" as="geometry">
            <mxPoint y="3" as="offset" />
          </mxGeometry>
        </mxCell>
        <mxCell id="OW2uP8YpIRxtxsNKAFUY-51" style="edgeStyle=orthogonalEdgeStyle;rounded=0;orthogonalLoop=1;jettySize=auto;html=1;entryX=0.5;entryY=1;entryDx=0;entryDy=0;fontColor=light-dark(#f11e1e, #ededed);" edge="1" parent="1" source="OW2uP8YpIRxtxsNKAFUY-14" target="OW2uP8YpIRxtxsNKAFUY-20">
          <mxGeometry relative="1" as="geometry" />
        </mxCell>
        <mxCell id="OW2uP8YpIRxtxsNKAFUY-14" value="" style="image;points=[];aspect=fixed;html=1;align=center;shadow=0;dashed=0;image=img/lib/allied_telesis/computer_and_terminals/Server_Desktop.svg;direction=east;" vertex="1" parent="1">
          <mxGeometry x="465" y="180" width="42.599999999999994" height="54" as="geometry" />
        </mxCell>
        <mxCell id="OW2uP8YpIRxtxsNKAFUY-17" value="SVR_V1&lt;div&gt;ip:1.1.1.1&lt;/div&gt;&lt;div&gt;DNS:1.1.1.1&lt;/div&gt;" style="text;html=1;align=center;verticalAlign=middle;resizable=0;points=[];autosize=1;strokeColor=none;fillColor=none;" vertex="1" parent="1">
          <mxGeometry x="380.32" y="177" width="90" height="60" as="geometry" />
        </mxCell>
        <mxCell id="OW2uP8YpIRxtxsNKAFUY-19" value="SVR_V2&lt;div&gt;ip:2.2.2.2&lt;/div&gt;&lt;div&gt;DNS:2.2.2.2&lt;/div&gt;" style="text;html=1;align=center;verticalAlign=middle;resizable=0;points=[];autosize=1;strokeColor=none;fillColor=none;" vertex="1" parent="1">
          <mxGeometry x="705" y="177" width="90" height="60" as="geometry" />
        </mxCell>
        <mxCell id="OW2uP8YpIRxtxsNKAFUY-26" value="" style="edgeStyle=orthogonalEdgeStyle;rounded=0;orthogonalLoop=1;jettySize=auto;html=1;fillColor=#e51400;strokeColor=#B20000;" edge="1" parent="1" source="OW2uP8YpIRxtxsNKAFUY-20" target="OW2uP8YpIRxtxsNKAFUY-14">
          <mxGeometry relative="1" as="geometry" />
        </mxCell>
        <mxCell id="OW2uP8YpIRxtxsNKAFUY-55" value="OPCTCP" style="edgeLabel;html=1;align=center;verticalAlign=middle;resizable=0;points=[];" vertex="1" connectable="0" parent="OW2uP8YpIRxtxsNKAFUY-26">
          <mxGeometry x="0.1451" y="-4" relative="1" as="geometry">
            <mxPoint as="offset" />
          </mxGeometry>
        </mxCell>
        <mxCell id="OW2uP8YpIRxtxsNKAFUY-20" value="&lt;div&gt;&lt;br&gt;&lt;/div&gt;" style="image;aspect=fixed;perimeter=ellipsePerimeter;html=1;align=center;shadow=0;dashed=0;spacingTop=3;image=img/lib/active_directory/internet_cloud.svg;" vertex="1" parent="1">
          <mxGeometry x="340" y="31.25" width="125" height="78.75" as="geometry" />
        </mxCell>
        <mxCell id="OW2uP8YpIRxtxsNKAFUY-27" value="&lt;b&gt;AGORA&lt;/b&gt;" style="text;html=1;align=center;verticalAlign=middle;resizable=0;points=[];autosize=1;strokeColor=none;fillColor=none;" vertex="1" parent="1">
          <mxGeometry x="367.5" y="55.63" width="70" height="30" as="geometry" />
        </mxCell>
        <mxCell id="OW2uP8YpIRxtxsNKAFUY-29" style="edgeStyle=orthogonalEdgeStyle;rounded=0;orthogonalLoop=1;jettySize=auto;html=1;fillColor=#e3c800;strokeColor=#B09500;" edge="1" parent="1" source="OW2uP8YpIRxtxsNKAFUY-28" target="OW2uP8YpIRxtxsNKAFUY-14">
          <mxGeometry relative="1" as="geometry" />
        </mxCell>
        <mxCell id="OW2uP8YpIRxtxsNKAFUY-28" value="" style="image;points=[];aspect=fixed;html=1;align=center;shadow=0;dashed=0;image=img/lib/allied_telesis/computer_and_terminals/Server_Desktop.svg;direction=east;" vertex="1" parent="1">
          <mxGeometry x="385.63" y="260" width="42.599999999999994" height="54" as="geometry" />
        </mxCell>
        <mxCell id="OW2uP8YpIRxtxsNKAFUY-30" value="AVALOS&lt;div&gt;ip:3.3.3.3&lt;/div&gt;" style="text;html=1;align=center;verticalAlign=middle;resizable=0;points=[];autosize=1;strokeColor=none;fillColor=none;fontSize=15;fontStyle=1" vertex="1" parent="1">
          <mxGeometry x="310" y="300" width="90" height="50" as="geometry" />
        </mxCell>
        <mxCell id="OW2uP8YpIRxtxsNKAFUY-41" value="" style="edgeStyle=orthogonalEdgeStyle;rounded=0;orthogonalLoop=1;jettySize=auto;html=1;" edge="1" parent="1" source="OW2uP8YpIRxtxsNKAFUY-33" target="OW2uP8YpIRxtxsNKAFUY-40">
          <mxGeometry relative="1" as="geometry" />
        </mxCell>
        <mxCell id="OW2uP8YpIRxtxsNKAFUY-33" value="" style="shape=image;html=1;verticalAlign=top;verticalLabelPosition=bottom;labelBackgroundColor=#ffffff;imageAspect=0;aspect=fixed;image=https://cdn2.iconfinder.com/data/icons/whcompare-isometric-web-hosting-servers/50/database-128.png" vertex="1" parent="1">
          <mxGeometry x="570" y="260" width="60" height="60" as="geometry" />
        </mxCell>
        <mxCell id="OW2uP8YpIRxtxsNKAFUY-47" value="" style="edgeStyle=orthogonalEdgeStyle;rounded=0;orthogonalLoop=1;jettySize=auto;html=1;" edge="1" parent="1" source="OW2uP8YpIRxtxsNKAFUY-40" target="OW2uP8YpIRxtxsNKAFUY-45">
          <mxGeometry relative="1" as="geometry" />
        </mxCell>
        <mxCell id="OW2uP8YpIRxtxsNKAFUY-48" style="edgeStyle=orthogonalEdgeStyle;rounded=0;orthogonalLoop=1;jettySize=auto;html=1;exitX=0.5;exitY=1;exitDx=0;exitDy=0;" edge="1" parent="1" source="OW2uP8YpIRxtxsNKAFUY-40" target="OW2uP8YpIRxtxsNKAFUY-44">
          <mxGeometry relative="1" as="geometry" />
        </mxCell>
        <mxCell id="OW2uP8YpIRxtxsNKAFUY-40" value="" style="shape=image;html=1;verticalAlign=top;verticalLabelPosition=bottom;labelBackgroundColor=#ffffff;imageAspect=0;aspect=fixed;image=https://cdn4.iconfinder.com/data/icons/48-bubbles/48/24.TV-128.png;dashed=1;" vertex="1" parent="1">
          <mxGeometry x="545" y="360" width="110" height="110" as="geometry" />
        </mxCell>
        <mxCell id="OW2uP8YpIRxtxsNKAFUY-42" value="&lt;font style=&quot;font-size: 19px;&quot;&gt;Visualizador&lt;br&gt;AVOCET&lt;/font&gt;" style="text;html=1;align=center;verticalAlign=middle;resizable=0;points=[];autosize=1;strokeColor=none;fillColor=none;" vertex="1" parent="1">
          <mxGeometry x="655" y="380" width="130" height="60" as="geometry" />
        </mxCell>
        <mxCell id="OW2uP8YpIRxtxsNKAFUY-44" value="" style="fontColor=#0066CC;verticalAlign=top;verticalLabelPosition=bottom;labelPosition=center;align=center;html=1;outlineConnect=0;fillColor=#CCCCCC;strokeColor=#6881B3;gradientColor=none;gradientDirection=north;strokeWidth=2;shape=mxgraph.networks.monitor;" vertex="1" parent="1">
          <mxGeometry x="427.6" y="510" width="80" height="65" as="geometry" />
        </mxCell>
        <mxCell id="OW2uP8YpIRxtxsNKAFUY-45" value="" style="fontColor=#0066CC;verticalAlign=top;verticalLabelPosition=bottom;labelPosition=center;align=center;html=1;outlineConnect=0;fillColor=#CCCCCC;strokeColor=#6881B3;gradientColor=none;gradientDirection=north;strokeWidth=2;shape=mxgraph.networks.monitor;" vertex="1" parent="1">
          <mxGeometry x="560" y="510" width="80" height="65" as="geometry" />
        </mxCell>
        <mxCell id="OW2uP8YpIRxtxsNKAFUY-46" value="" style="fontColor=#0066CC;verticalAlign=top;verticalLabelPosition=bottom;labelPosition=center;align=center;html=1;outlineConnect=0;fillColor=#CCCCCC;strokeColor=#6881B3;gradientColor=none;gradientDirection=north;strokeWidth=2;shape=mxgraph.networks.monitor;" vertex="1" parent="1">
          <mxGeometry x="690" y="510" width="80" height="65" as="geometry" />
        </mxCell>
        <mxCell id="OW2uP8YpIRxtxsNKAFUY-49" style="edgeStyle=orthogonalEdgeStyle;rounded=0;orthogonalLoop=1;jettySize=auto;html=1;entryX=0.5;entryY=0;entryDx=0;entryDy=0;entryPerimeter=0;" edge="1" parent="1" target="OW2uP8YpIRxtxsNKAFUY-46">
          <mxGeometry relative="1" as="geometry">
            <mxPoint x="600" y="490" as="sourcePoint" />
          </mxGeometry>
        </mxCell>
        <mxCell id="OW2uP8YpIRxtxsNKAFUY-50" value="SENSIA" style="text;html=1;align=center;verticalAlign=middle;resizable=0;points=[];autosize=1;strokeColor=none;fillColor=none;fontSize=17;fontStyle=1" vertex="1" parent="1">
          <mxGeometry x="616.11" y="275" width="90" height="30" as="geometry" />
        </mxCell>
        <mxCell id="OW2uP8YpIRxtxsNKAFUY-56" value="" style="shape=image;html=1;verticalAlign=top;verticalLabelPosition=bottom;labelBackgroundColor=#ffffff;imageAspect=0;aspect=fixed;image=https://cdn4.iconfinder.com/data/icons/PixeloPhilia_2/PNG/license.png" vertex="1" parent="1">
          <mxGeometry x="640" y="53.63" width="32" height="32" as="geometry" />
        </mxCell>
        <mxCell id="OW2uP8YpIRxtxsNKAFUY-57" style="edgeStyle=orthogonalEdgeStyle;rounded=0;orthogonalLoop=1;jettySize=auto;html=1;entryX=0.903;entryY=0.125;entryDx=0;entryDy=0;entryPerimeter=0;" edge="1" parent="1" source="OW2uP8YpIRxtxsNKAFUY-56" target="OW2uP8YpIRxtxsNKAFUY-9">
          <mxGeometry relative="1" as="geometry" />
        </mxCell>
        <mxCell id="OW2uP8YpIRxtxsNKAFUY-58" value="Pisim B12" style="text;html=1;align=center;verticalAlign=middle;resizable=0;points=[];autosize=1;strokeColor=none;fillColor=none;" vertex="1" parent="1">
          <mxGeometry x="672" y="55.63" width="80" height="30" as="geometry" />
        </mxCell>
        <mxCell id="OW2uP8YpIRxtxsNKAFUY-59" value="" style="shape=image;html=1;verticalAlign=top;verticalLabelPosition=bottom;labelBackgroundColor=#ffffff;imageAspect=0;aspect=fixed;image=https://cdn4.iconfinder.com/data/icons/PixeloPhilia_2/PNG/license.png" vertex="1" parent="1">
          <mxGeometry x="734" y="140" width="32" height="32" as="geometry" />
        </mxCell>
        <mxCell id="OW2uP8YpIRxtxsNKAFUY-60" style="edgeStyle=orthogonalEdgeStyle;rounded=0;orthogonalLoop=1;jettySize=auto;html=1;entryX=0.876;entryY=0.125;entryDx=0;entryDy=0;entryPerimeter=0;" edge="1" parent="1" source="OW2uP8YpIRxtxsNKAFUY-59" target="OW2uP8YpIRxtxsNKAFUY-13">
          <mxGeometry relative="1" as="geometry" />
        </mxCell>
        <mxCell id="OW2uP8YpIRxtxsNKAFUY-61" value="&lt;span style=&quot;font-size: 11pt; color: rgb(35, 31, 32);&quot; lang=&quot;ES-EC&quot;&gt;PISIM ETAP&amp;nbsp;&lt;/span&gt;&lt;div&gt;&lt;span style=&quot;font-size: 11pt; color: rgb(35, 31, 32);&quot; lang=&quot;ES-EC&quot;&gt;B61&lt;/span&gt;&lt;/div&gt;" style="text;html=1;align=center;verticalAlign=middle;resizable=0;points=[];autosize=1;strokeColor=none;fillColor=none;" vertex="1" parent="1">
          <mxGeometry x="767" y="130" width="110" height="50" as="geometry" />
        </mxCell>
        <mxCell id="OW2uP8YpIRxtxsNKAFUY-64" value="" style="image;sketch=0;aspect=fixed;html=1;points=[];align=center;fontSize=12;image=img/lib/mscae/Info.svg;" vertex="1" parent="1">
          <mxGeometry x="260" y="245" width="30" height="30" as="geometry" />
        </mxCell>
        <mxCell id="OW2uP8YpIRxtxsNKAFUY-65" value="" style="image;sketch=0;aspect=fixed;html=1;points=[];align=center;fontSize=12;image=img/lib/mscae/Info.svg;" vertex="1" parent="1">
          <mxGeometry x="260" y="190" width="30" height="30" as="geometry" />
        </mxCell>
        <mxCell id="OW2uP8YpIRxtxsNKAFUY-66" value="WTF" style="text;html=1;align=center;verticalAlign=middle;resizable=0;points=[];autosize=1;strokeColor=none;fillColor=none;" vertex="1" parent="1">
          <mxGeometry x="210" y="190" width="50" height="30" as="geometry" />
        </mxCell>
        <mxCell id="OW2uP8YpIRxtxsNKAFUY-67" value="P.Electrico" style="text;html=1;align=center;verticalAlign=middle;resizable=0;points=[];autosize=1;strokeColor=none;fillColor=none;" vertex="1" parent="1">
          <mxGeometry x="180" y="245" width="80" height="30" as="geometry" />
        </mxCell>
        <mxCell id="OW2uP8YpIRxtxsNKAFUY-68" style="edgeStyle=orthogonalEdgeStyle;rounded=0;orthogonalLoop=1;jettySize=auto;html=1;entryX=1;entryY=0.333;entryDx=0;entryDy=0;entryPerimeter=0;exitX=0.056;exitY=0.494;exitDx=0;exitDy=0;exitPerimeter=0;" edge="1" parent="1" source="OW2uP8YpIRxtxsNKAFUY-28" target="OW2uP8YpIRxtxsNKAFUY-65">
          <mxGeometry relative="1" as="geometry" />
        </mxCell>
        <mxCell id="OW2uP8YpIRxtxsNKAFUY-69" style="edgeStyle=orthogonalEdgeStyle;rounded=0;orthogonalLoop=1;jettySize=auto;html=1;entryX=1.022;entryY=0.5;entryDx=0;entryDy=0;entryPerimeter=0;" edge="1" parent="1" source="OW2uP8YpIRxtxsNKAFUY-28" target="OW2uP8YpIRxtxsNKAFUY-64">
          <mxGeometry relative="1" as="geometry" />
        </mxCell>
      </root>
    </mxGraphModel>
  </diagram>
</mxfile>
